<svg xmlns="http://www.w3.org/2000/svg" viewBox="0 0 58 58"><path fill="#e5e5da" d="M0 15.307V56.307H58V15.307z"/><path d="M58 55.017V16.599a.64.64 0 0 0-1.027-.508L37 36.307l19.973 19.218A.64.64 0 0 0 58 55.017z" fill="#c4c2a5"/><path d="M0 15.308l27.139 27.267a2.733 2.733 0 0 0 3.723 0L58 15.307" fill="#d1d0bf"/><path d="M0 55.017V16.599a.64.64 0 0 1 1.027-.508L21 36.307 1.027 55.525A.64.64 0 0 1 0 55.017z" fill="#c4c2a5"/><path d="M56.672 15.307L53.051 1.794l-.027-.101L3.18 15.048c-.149.04-.12.259.034.259h53.458z" fill="#e0dcc3"/><path fill="#7383bf" d="M49.425 15.307l-1.351-5.041-7.727 2.071.796 2.97z"/><path d="M3.18 15.048l28.89-7.741H3v8h.214c-.154 0-.183-.219-.034-.259z" fill="#b2af94"/></svg>